<svg xmlns="http://www.w3.org/2000/svg" width="26" height="30" fill="none" viewBox="0 0 26 30">
  <path fill="currentColor" fill-rule="evenodd" d="M22.9546 4.2896V2.697c0-1.5686-.9937-2.5052-2.6585-2.5052-1.6644 0-2.6582.9366-2.6582 2.5052v1.5925h-1.8006V2.697c0-1.5686-.9942-2.5052-2.6586-2.5052-1.6645 0-2.6582.9366-2.6582 2.5052v1.5925H8.719V2.697C8.719 1.1285 7.7257.192 6.0608.192c-1.6644 0-2.6581.9366-2.6581 2.5052v1.5925H.3503v25.5156H25.974V4.2896h-3.0194zm-20.469 18.969h3.5336v-3.9201H2.4857v3.9201zm0-4.6282h3.5336v-4.2736H2.4857v4.2736zm4.245 4.6282h17.1081v-3.9201H6.7307v3.9201zm0-4.6282h17.1081v-4.2736H6.7307v4.2736zM19.0614 2.6971c0-.7738.3561-1.0878 1.2348-1.0878.8786 0 1.2348.314 1.2348 1.0878v4.2604c0 .7739-.3562 1.0874-1.2348 1.0874-.8787 0-1.2348-.3135-1.2348-1.0874V2.6971zm-7.1174 0c0-.7738.3561-1.0878 1.2348-1.0878.8786 0 1.2343.314 1.2343 1.0878v4.2604c0 .7739-.3557 1.0874-1.2343 1.0874-.8787 0-1.2348-.3135-1.2348-1.0874V2.6971zM6.7307 13.6488h17.108V9.96H6.7307v3.6888zM4.826 2.6971c0-.7738.3562-1.0878 1.2348-1.0878.8787 0 1.2348.314 1.2348 1.0878v4.2604c0 .7739-.3561 1.0874-1.2348 1.0874-.8786 0-1.2348-.3135-1.2348-1.0874V2.6971zM2.4857 13.6488h3.5335V9.96H2.4857v3.6888zm0 14.0301h3.5335v-3.713H2.4857v3.713zm4.245 0h17.108v-3.713H6.7307v3.713z" clip-rule="evenodd"/>
</svg>
