<svg xmlns="http://www.w3.org/2000/svg" fill="none" width="30" height="30" viewBox="0 0 30 30">
  <defs/>
  <path fill="currentColor" fill-rule="evenodd" d="M14.8492.3407C6.6785.3407.0547 6.964.0547 15.1352s6.6238 14.7945 14.7945 14.7945 14.7945-6.6234 14.7945-14.7945c0-8.171-6.6238-14.7945-14.7945-14.7945zm0 25.8904c-6.1183 0-11.0959-4.9771-11.0959-11.0959 0-6.1183 4.9776-11.0959 11.0959-11.0959 6.1184 0 11.0959 4.9775 11.0959 11.0959 0 6.1188-4.9775 11.0959-11.0959 11.0959z" clip-rule="evenodd"/>
  <path fill="currentColor" fill-rule="evenodd" d="M22.0273 18.4508l-5.8524-3.953V7.694a.6256.6256 0 00-.1804-.4368.6214.6214 0 00-.4365-.1805h-1.6183a.6205.6205 0 00-.4361.1805.624.624 0 00-.1804.4368v8.0346c0 .1628.0658.3218.1804.4365a.6197.6197 0 00.1591.1142l6.8186 4.5678a.6214.6214 0 00.3419.104.6086.6086 0 00.1307-.0144.6116.6116 0 00.3933-.2761l.8581-1.3722a.6168.6168 0 00-.178-.8376z" clip-rule="evenodd"/>
</svg>
