<svg xmlns="http://www.w3.org/2000/svg" fill="none" width="15" height="14" viewBox="0 0 15 14">
  <path fill="currentColor" fill-rule="evenodd" d="M7.0547 0c-3.866 0-7 3.1339-7 7s3.134 7 7 7c3.8659 0 7-3.1339 7-7s-3.1341-7-7-7zm0 12.25c-2.8949 0-5.25-2.355-5.25-5.25 0-2.8949 2.3551-5.25 5.25-5.25s5.25 2.3551 5.25 5.25c0 2.895-2.3551 5.25-5.25 5.25z" clip-rule="evenodd"/>
  <path fill="currentColor" fill-rule="evenodd" d="M10.4508 8.5688l-2.769-1.8704V3.4792a.296.296 0 00-.0854-.2067.294.294 0 00-.2065-.0854h-.7657a.2935.2935 0 00-.2063.0854.295.295 0 00-.0854.2067v3.8016a.294.294 0 00.0854.2065.2936.2936 0 00.0752.054l3.2263 2.1613a.294.294 0 00.1617.0492.2897.2897 0 00.0619-.0068.2893.2893 0 00.186-.1307l.406-.6492a.2917.2917 0 00-.0842-.3963z" clip-rule="evenodd"/>
</svg>
