<svg xmlns="http://www.w3.org/2000/svg" fill="none" width="34" height="30" viewBox="0 0 34 30">
  <defs/>
  <path fill="currentColor" fill-rule="evenodd" d="M32.7431 23.7661L20.3256 2.5303c-1.9329-3.305-5.0986-3.3069-7.0348-.0041L.8301 23.7712c-1.9366 3.3024-.3674 6.0042 3.4871 6.0042H29.249c3.8541 0 5.4265-2.7042 3.4941-6.0093zm-15.8212 2.2694c-1.1937 0-2.1439-.9406-2.1439-2.124 0-1.1834.9502-2.1244 2.1439-2.1244 1.1937 0 2.1439.941 2.1439 2.1244 0 1.1834-.9502 2.124-2.1439 2.124zm1.5193-5.5929h-3.039L14.3794 8.1828h5.0851l-1.0233 12.2598z" clip-rule="evenodd"/>
</svg>
